<?xml version="1.0" standalone="no"?>
<!DOCTYPE svg PUBLIC "-//W3C//DTD SVG 20010904//EN"
 "http://www.w3.org/TR/2001/REC-SVG-20010904/DTD/svg10.dtd">
<svg version="1.0" xmlns="http://www.w3.org/2000/svg"
 width="1280.000000pt" height="1066.000000pt" viewBox="0 0 1280.000000 1066.000000"
 preserveAspectRatio="xMidYMid meet">
<g transform="translate(0.000000,1066.000000) scale(0.100000,-0.100000)"
fill="#000000" stroke="none" >
<path d="M6020 8724 c-609 -14 -1706 -73 -2247 -120 l-73 -7 0 -208 c0 -208 0
-209 -22 -214 -13 -3 -112 -23 -221 -45 -270 -54 -277 -56 -277 -83 0 -19 131
-795 230 -1365 16 -94 30 -181 30 -192 0 -25 17 -25 140 0 118 24 120 24 120
0 0 -11 -1 -20 -2 -20 -2 0 -65 -13 -141 -29 -76 -15 -140 -25 -142 -21 -2 3
-34 181 -71 396 -36 214 -68 391 -70 393 -17 19 -939 -214 -1348 -341 l-98
-30 98 -46 c126 -59 606 -301 617 -311 5 -5 -28 -72 -72 -150 -100 -175 -281
-514 -281 -525 0 -4 8 -5 17 -2 55 21 547 158 778 216 238 60 677 160 703 160
7 0 12 -179 15 -477 5 -516 8 -561 68 -858 63 -318 158 -595 304 -890 186
-376 364 -621 683 -943 507 -510 1048 -879 1535 -1048 l107 -36 106 36 c310
107 660 307 998 569 269 208 600 524 790 752 394 476 654 1056 760 1698 39
236 46 351 46 790 l0 409 33 -7 c419 -85 929 -213 1319 -331 80 -24 149 -44
153 -44 11 0 -298 571 -348 643 -11 16 -16 32 -11 37 9 8 550 278 664 331 l54
26 -79 26 c-298 98 -1343 364 -1359 346 -2 -2 -33 -177 -70 -389 -37 -212 -70
-395 -72 -406 l-6 -21 -81 17 c-45 10 -108 23 -139 30 -47 9 -58 15 -58 31 0
24 2 24 132 -3 59 -12 109 -20 112 -17 2 2 21 99 41 214 20 116 42 244 50 285
8 41 26 140 39 220 38 222 145 832 151 857 5 20 -2 23 -83 42 -81 19 -428 91
-438 91 -2 0 -4 98 -4 219 l0 218 -72 7 c-377 33 -1252 85 -1778 105 -277 11
-1013 20 -1230 15z m1325 -173 c398 -19 1017 -55 1425 -84 l165 -12 3 -133 3
-133 -23 5 c-284 63 -1075 161 -1573 196 -519 36 -1409 39 -1890 6 -522 -36
-1094 -103 -1557 -182 l-38 -7 0 122 c0 88 3 123 13 126 40 13 1304 85 1822
105 285 10 1353 5 1650 -9z m-2127 -715 l2 -169 33 31 c82 79 224 82 299 5
l33 -34 5 -210 c5 -228 7 -235 62 -223 17 3 36 0 48 -9 21 -15 21 -15 -6 -36
-39 -30 -87 -27 -126 8 l-33 29 -5 205 c-5 223 -7 228 -67 254 -67 28 -141 8
-205 -55 l-38 -36 0 -208 0 -208 -30 0 -30 0 0 416 0 415 28 -3 27 -3 3 -169z
m-596 134 c44 -13 94 -62 102 -101 11 -59 -31 -119 -83 -119 -29 0 -30 55 -1
63 22 6 26 36 10 67 -6 11 -29 24 -51 30 -83 23 -166 -14 -189 -85 -9 -28 -8
-41 6 -70 21 -45 57 -72 162 -124 122 -59 147 -77 181 -128 26 -39 31 -56 31
-105 0 -69 -16 -111 -60 -162 -52 -59 -102 -80 -190 -81 -89 0 -146 23 -208
87 -37 37 -70 93 -61 103 2 2 15 6 29 9 21 5 29 0 50 -34 85 -139 293 -143
359 -7 25 52 27 97 5 142 -18 39 -57 66 -175 123 -159 76 -220 162 -190 264
15 51 76 113 124 127 44 13 105 13 149 1z m1256 -2 c7 -7 12 -21 12 -33 0 -12
-5 -26 -12 -33 -7 -7 -21 -12 -33 -12 -12 0 -26 5 -33 12 -7 7 -12 21 -12 33
0 12 5 26 12 33 7 7 21 12 33 12 12 0 26 -5 33 -12z m-874 -36 c0 -12 -1 -60
-2 -107 l-2 -85 -29 0 c-24 0 -29 5 -35 31 -7 37 -8 174 -1 181 3 2 19 4 37 3
27 -1 33 -6 32 -23z m2256 -117 l0 -75 90 0 90 0 0 -30 0 -30 -90 0 -90 0 0
-189 c0 -184 7 -236 33 -253 7 -4 31 -8 53 -8 33 0 49 7 74 30 27 25 34 28 51
17 26 -16 24 -29 -8 -59 -42 -39 -66 -48 -126 -48 -41 0 -61 5 -82 22 -52 41
-55 61 -55 393 l0 305 30 0 30 0 0 -75z m-823 -88 c84 -45 128 -147 121 -286
-3 -71 -9 -95 -33 -140 -54 -99 -119 -130 -272 -131 l-103 0 0 -145 0 -145
-30 0 -29 0 -3 383 c-3 351 -5 385 -22 420 -18 37 -18 38 0 52 16 11 21 11 36
-1 9 -9 22 -28 28 -44 l12 -29 25 30 c14 16 35 35 47 41 51 28 164 26 223 -5z
m536 11 c33 -10 38 -15 35 -37 -3 -29 -11 -30 -100 -11 -50 11 -60 10 -95 -6
-33 -17 -38 -24 -41 -58 -4 -52 21 -77 117 -117 42 -17 92 -41 112 -54 104
-67 84 -225 -36 -270 -61 -24 -183 -17 -242 13 -52 27 -56 33 -38 59 l15 21
42 -22 c34 -16 61 -21 126 -21 79 0 85 1 108 28 32 38 33 99 1 131 -12 12 -58
37 -102 55 -117 48 -152 73 -166 120 -17 57 -5 104 36 140 33 28 45 34 100 44
27 5 82 -2 128 -15z m943 1 c70 -21 121 -104 111 -181 -7 -51 -28 -82 -79
-116 -39 -25 -50 -27 -170 -31 -124 -3 -128 -4 -128 -25 0 -37 43 -110 80
-134 31 -21 44 -23 115 -20 57 3 93 11 123 27 42 21 44 22 58 4 20 -26 14 -35
-42 -63 -58 -28 -175 -39 -242 -21 -96 26 -153 111 -160 237 -13 242 133 383
334 323z m552 11 c18 0 22 -6 22 -29 0 -29 -1 -30 -54 -30 -65 0 -103 -18
-139 -65 l-27 -35 0 -205 0 -206 -35 0 -35 0 0 233 c0 208 -2 237 -19 269 -18
36 -18 38 0 54 23 21 39 10 64 -42 l17 -35 31 36 c34 38 99 68 132 60 11 -3
30 -5 43 -5z m-2588 -249 c0 -272 1 -278 57 -267 18 4 35 0 48 -10 20 -15 20
-15 -4 -35 -37 -30 -96 -26 -132 10 l-29 29 0 261 0 261 30 0 30 0 0 -249z
m1400 -765 c555 -41 949 -88 1439 -171 112 -19 208 -35 213 -35 4 0 8 -273 8
-608 0 -478 -3 -635 -15 -737 -68 -580 -279 -1150 -593 -1595 -302 -429 -828
-905 -1352 -1225 -175 -107 -523 -268 -580 -268 -54 0 -379 148 -565 258 -473
280 -1006 752 -1319 1170 -339 451 -570 1050 -641 1660 -12 102 -15 259 -15
742 0 574 1 612 18 617 25 8 299 51 502 80 349 50 817 96 1170 116 107 6 218
12 245 14 28 2 325 2 660 1 438 -2 671 -7 825 -19z"/>
<path d="M6266 7686 c-50 -19 -94 -62 -107 -106 -6 -19 -9 -103 -7 -190 l3
-155 93 -3 c110 -3 164 15 206 71 77 101 47 320 -52 371 -44 23 -94 27 -136
12z"/>
<path d="M7765 7686 c-62 -28 -105 -95 -120 -185 l-7 -44 108 5 c158 8 216 38
218 116 2 93 -104 150 -199 108z"/>
<path d="M5855 6298 c-40 -14 -75 -46 -91 -85 -19 -44 -18 -239 0 -306 8 -29
17 -78 20 -109 5 -48 4 -58 -9 -58 -9 0 -59 -5 -112 -11 -714 -79 -1137 -826
-837 -1478 119 -258 354 -466 629 -554 108 -35 188 -47 327 -47 480 0 891 324
1011 800 18 70 21 113 21 245 -1 140 -4 172 -27 259 -65 241 -219 462 -419
597 -135 92 -315 161 -456 175 -37 4 -70 12 -74 18 -4 6 -8 29 -8 50 l0 39 93
-7 c324 -24 580 -156 760 -391 130 -170 229 -407 331 -790 25 -93 52 -192 60
-218 l15 -49 -44 -53 c-174 -214 -99 -538 154 -663 73 -36 77 -37 191 -37 111
0 118 1 185 34 176 87 278 279 247 462 -30 173 -156 315 -320 359 -102 27
-248 7 -340 -47 -24 -14 -44 -24 -46 -22 -2 2 -29 101 -61 219 -140 529 -240
738 -447 944 -71 71 -96 101 -86 107 7 4 24 17 38 29 14 12 42 33 63 47 43 27
79 79 75 108 -5 35 -44 45 -188 44 -174 -1 -292 -11 -298 -27 -3 -9 -55 -12
-196 -12 l-192 0 -18 56 c-15 46 -16 74 -10 165 6 105 8 110 36 134 36 31 57
22 82 -33 14 -30 22 -38 37 -35 24 7 24 30 -1 71 -11 17 -16 32 -12 32 13 0
60 -49 67 -70 9 -29 52 -24 47 5 -6 33 -52 86 -88 101 -39 16 -67 17 -109 2z
m474 -479 c62 -11 190 -72 191 -92 0 -4 -11 -13 -25 -19 -22 -10 -37 -5 -117
35 -51 25 -118 53 -148 62 -30 10 -59 18 -65 20 -27 9 107 4 164 -6z m-597
-186 l2 -68 3 68 c4 64 5 67 28 67 l25 0 -1 -177 c0 -98 -5 -243 -10 -323 -6
-80 -13 -191 -16 -247 -4 -97 -16 -132 -26 -80 -3 17 -5 16 -6 -8 0 -18 -5
-25 -10 -20 -5 6 -55 123 -111 260 -89 218 -134 319 -117 265 5 -14 122 -305
186 -459 17 -41 31 -75 31 -77 0 -25 -48 44 -211 304 -107 169 -208 329 -226
356 -18 27 -30 52 -28 56 10 16 136 73 144 64 4 -5 27 -58 51 -117 23 -59 44
-106 46 -104 2 2 -17 54 -42 117 -51 126 -52 120 33 145 56 17 83 19 83 8 0
-5 36 -174 80 -378 44 -203 80 -374 80 -379 0 -5 3 -7 6 -4 3 4 -32 178 -77
387 -45 210 -79 384 -76 387 6 6 90 21 130 23 27 1 27 0 29 -66z m155 59 c6
-4 13 -23 16 -42 l4 -35 1 38 c2 43 0 42 93 21 44 -10 69 -21 69 -29 0 -17
-239 -764 -251 -785 -14 -24 -11 58 7 176 9 58 13 117 10 131 -4 13 -4 138 0
278 6 224 9 255 23 255 9 0 21 -4 28 -8z m321 -92 c89 -42 172 -95 172 -110 0
-11 -28 -48 -333 -437 -40 -52 -54 -63 -78 -63 -34 0 -35 5 -11 45 46 75 288
543 275 530 -6 -5 -61 -107 -123 -225 -169 -323 -184 -350 -198 -350 -8 0 -12
-8 -9 -17 4 -20 -51 -133 -65 -133 -13 0 -20 -25 122 419 115 358 127 390 145
385 11 -3 57 -23 103 -44z m-753 -411 c121 -192 222 -354 223 -359 11 -32 -34
11 -194 187 -98 108 -205 226 -238 262 -32 36 -79 88 -103 114 -25 26 -44 49
-42 51 2 2 30 24 62 49 32 26 61 47 65 47 4 -1 106 -158 227 -351z m1010 239
l56 -53 -216 -195 c-197 -178 -218 -194 -248 -191 -17 1 -34 4 -35 6 -6 5 369
485 379 485 4 0 33 -24 64 -52z m-1239 -140 c71 -79 198 -218 282 -310 83 -92
152 -170 152 -173 0 -3 -4 -5 -9 -5 -8 0 -624 471 -659 504 -9 9 -1 24 39 69
28 31 54 57 58 57 4 0 66 -64 137 -142z m1348 20 c21 -28 39 -58 40 -66 1 -16
-689 -455 -706 -450 -12 4 601 567 617 568 6 0 28 -23 49 -52z m-1264 -264
c182 -141 330 -260 330 -265 0 -11 -13 -12 -25 0 -15 13 -372 196 -360 184 6
-6 78 -45 160 -88 182 -94 222 -118 207 -123 -6 -2 -173 49 -372 113 -199 64
-364 114 -366 112 -2 -2 163 -57 366 -122 204 -66 370 -123 370 -128 0 -4 -28
-6 -62 -3 l-63 5 63 -10 c34 -6 62 -15 62 -20 0 -5 -33 -10 -72 -11 l-73 -2
73 -3 c39 -2 72 -8 72 -13 0 -6 -8 -11 -17 -11 -17 -1 -17 -2 0 -6 29 -8 19
-20 -28 -39 -25 -9 -44 -19 -41 -21 2 -2 22 4 45 13 23 9 45 14 48 10 8 -8 30
6 -262 -176 -143 -90 -302 -190 -353 -222 -52 -33 -95 -58 -98 -56 -6 7 -74
142 -71 144 1 1 104 43 230 94 125 51 226 94 224 96 -2 2 -105 -37 -230 -88
-124 -51 -228 -90 -231 -87 -13 13 -57 193 -63 256 l-6 73 74 1 c41 0 200 7
354 14 268 13 271 13 75 9 -113 -2 -271 -7 -352 -11 l-148 -6 0 83 0 83 53 -7
c119 -14 155 -14 60 1 -117 18 -114 14 -91 113 8 36 18 55 32 60 12 5 15 9 9
9 -7 1 -13 7 -13 15 0 23 52 136 62 136 6 0 88 -41 184 -91 96 -50 174 -88
174 -86 0 3 -79 47 -175 97 -96 50 -175 95 -175 101 0 15 76 129 86 129 3 0
153 -115 334 -256z m1359 114 c17 -33 31 -66 31 -72 0 -6 -168 -80 -372 -163
-447 -182 -408 -167 -408 -155 0 5 129 91 288 191 158 99 314 198 347 220 33
22 65 40 72 40 6 1 25 -27 42 -61z m70 -173 c16 -49 18 -71 10 -74 -8 -2 -8
-5 1 -11 19 -12 29 -84 30 -213 0 -113 -1 -118 -22 -127 -18 -7 -19 -9 -5 -9
9 -1 17 -8 17 -17 0 -16 -29 -137 -35 -142 -1 -2 -60 16 -130 38 -70 23 -128
40 -131 38 -2 -2 52 -22 119 -43 67 -21 126 -42 130 -45 9 -7 -25 -105 -46
-134 -12 -17 -39 -5 -378 174 -200 106 -368 196 -373 201 -23 21 40 5 276 -72
138 -44 252 -79 254 -76 4 4 -82 32 -393 130 -73 23 -133 45 -133 50 0 4 17 8
38 9 36 1 36 1 5 5 -37 5 -45 23 -10 24 13 0 16 2 7 6 -8 2 -22 7 -30 9 -13 5
-13 6 0 13 8 4 138 34 287 66 150 32 271 61 268 63 -3 3 -495 -99 -549 -115
-12 -3 -17 -1 -14 7 5 15 770 330 780 321 3 -3 16 -37 27 -76z m-789 -32 c-1
-10 -90 -129 -90 -119 0 21 63 126 75 126 8 0 15 -3 15 -7z m44 -55 c-37 -35
-76 -69 -87 -77 -25 -18 -22 -12 41 77 39 56 47 62 78 62 l35 0 -67 -62z m288
-479 c200 -105 367 -195 372 -199 7 -7 -68 -140 -79 -140 -2 0 -115 87 -252
193 -136 106 -285 221 -330 256 -72 55 -97 81 -78 81 3 0 168 -86 367 -191z
m-632 174 c0 -5 -139 -134 -309 -288 -170 -154 -308 -282 -306 -284 3 -3 168
142 205 179 3 3 53 48 111 101 95 87 109 96 137 91 18 -2 32 -8 32 -12 0 -10
-360 -474 -371 -478 -19 -8 -220 216 -219 245 0 4 104 73 231 153 127 80 286
180 353 222 120 77 136 85 136 71z m20 -20 c-1 -5 -27 -42 -58 -83 -53 -69
-60 -75 -97 -78 l-40 -2 90 85 c85 80 106 95 105 78z m326 -60 c48 -38 119
-93 159 -123 297 -229 405 -314 405 -322 0 -6 -24 -34 -53 -64 l-52 -55 -275
302 c-151 166 -279 308 -283 316 -17 28 16 10 99 -54z m56 -135 c91 -101 215
-238 277 -306 61 -68 111 -127 111 -133 0 -8 -121 -102 -125 -96 -3 3 -344
544 -397 629 -26 43 -48 80 -48 83 0 20 37 -17 182 -177z m-79 -10 c63 -101
163 -259 221 -352 59 -93 105 -174 103 -180 -4 -11 -108 -66 -131 -70 -6 -1
-20 -7 -31 -13 -24 -13 -135 -46 -140 -41 -2 1 -8 19 -14 38 l-10 35 5 -41 5
-41 -47 -7 c-26 -3 -62 -6 -80 -6 -31 0 -34 3 -36 33 l-1 32 -4 -33 c-3 -18
-11 -36 -19 -39 -18 -7 -249 23 -291 37 -28 10 -30 14 -23 38 4 15 60 191 125
390 64 200 115 366 113 368 -2 2 -18 -40 -35 -94 -75 -231 -193 -600 -205
-639 -7 -24 -18 -43 -25 -43 -14 0 -112 36 -131 49 -11 6 9 51 88 202 196 372
212 399 227 399 10 0 12 6 8 19 -9 29 51 131 76 128 10 -2 21 -6 24 -9 3 -3
24 -2 46 2 31 6 42 4 50 -9 8 -13 9 -12 4 7 -15 54 20 10 128 -160z m-324 99
c-27 -50 -49 -72 -49 -50 0 11 72 114 76 110 2 -2 -10 -29 -27 -60z m1723 -99
l2 -93 3 93 4 94 52 -7 c29 -4 56 -11 62 -16 6 -6 -4 -51 -28 -122 -20 -62
-37 -117 -36 -122 0 -6 20 47 43 116 41 123 43 126 66 117 13 -5 26 -10 28
-12 1 -2 -27 -61 -64 -131 -44 -84 -63 -130 -57 -136 11 -11 16 -5 138 149
l57 74 21 -21 21 -21 -74 -67 c-41 -38 -93 -85 -115 -107 l-40 -38 42 33 c23
19 76 65 117 103 73 65 77 68 91 50 8 -10 15 -23 15 -27 0 -4 -30 -27 -67 -50
-202 -127 -200 -125 -173 -136 15 -6 19 -10 9 -10 -20 -1 -44 25 -44 48 0 9
-7 16 -15 16 -9 0 -18 14 -22 35 -6 34 -7 34 -5 -7 1 -23 -1 -39 -5 -37 -5 3
-9 33 -10 67 l-1 62 -7 -65 c-4 -36 -8 -54 -9 -40 -2 25 -2 25 -15 -5 -21 -49
-39 -59 -74 -41 -35 18 -56 42 -47 55 3 6 -4 16 -15 23 -22 13 -65 86 -57 95
5 4 69 -61 122 -124 29 -35 20 -46 -10 -13 -10 11 -23 20 -29 20 -11 -1 53
-59 65 -60 21 -1 -5 42 -74 117 -43 49 -86 99 -95 112 -15 22 -15 24 3 37 26
19 27 19 53 -26 50 -88 143 -223 137 -200 -5 20 -4 22 5 10 18 -24 4 18 -50
149 l-49 116 27 12 c33 14 30 19 62 -135 13 -62 25 -110 28 -108 2 3 -8 59
-22 125 -14 67 -26 123 -26 125 0 5 27 13 48 15 9 1 13 -25 14 -91z m-88 -69
c26 -66 46 -122 43 -125 -3 -3 -37 46 -76 108 -66 103 -70 114 -54 125 9 7 22
13 27 13 6 0 33 -54 60 -121z m333 62 c-57 -79 -162 -210 -165 -207 -4 4 42
98 95 193 34 62 35 62 59 47 20 -14 22 -19 11 -33z m-2017 19 c0 -5 -15 -38
-34 -72 -18 -35 -86 -163 -150 -285 l-117 -222 -52 31 c-97 56 -96 48 -15 152
39 50 125 162 191 249 105 136 125 157 149 157 15 0 28 -4 28 -10z m1514 -76
c4 -15 5 -28 3 -30 -8 -8 -39 35 -32 45 11 18 23 12 29 -15z m-8 -36 c28 -19
73 -88 58 -88 -15 0 -124 66 -124 76 0 10 20 34 29 34 3 0 19 -10 37 -22z
m642 -32 c10 -24 8 -25 -118 -77 -71 -29 -128 -54 -126 -56 2 -3 61 19 130 48
70 28 128 50 130 48 3 -2 7 -16 11 -31 6 -22 3 -27 -17 -31 -21 -4 -20 -4 5
-6 26 -1 27 -2 27 -62 l0 -62 -52 7 c-121 14 -156 14 -60 -1 102 -16 102 -16
102 -44 0 -16 -3 -29 -7 -29 -4 0 -68 19 -143 43 -129 40 -133 42 -95 48 l40
6 -37 2 c-21 0 -38 5 -38 10 0 5 -8 11 -17 13 -10 2 11 12 47 21 44 11 51 14
23 11 -23 -3 -49 -2 -58 3 -13 8 8 25 102 85 65 42 123 76 129 77 6 1 16 -10
22 -23z m-546 -100 c8 -14 5 -16 -19 -11 -15 3 -6 -3 21 -14 70 -29 69 -33 -4
-27 l-65 5 75 -13 c46 -7 67 -14 55 -18 -14 -4 -10 -6 15 -8 l35 -2 -45 -14
c-39 -12 -40 -13 -10 -9 19 3 42 0 50 -5 11 -7 11 -10 2 -10 -7 0 -11 -4 -8
-9 5 -8 -158 -165 -204 -198 -18 -13 -25 -9 -43 23 -3 6 47 44 118 89 81 51
120 82 112 87 -9 6 -8 8 2 8 8 0 12 3 9 6 -3 3 -68 -20 -143 -51 -141 -58
-154 -59 -155 -14 0 12 26 21 112 39 61 13 107 25 101 27 -6 2 -52 -5 -104
-17 -51 -11 -99 -20 -106 -20 -9 0 -13 18 -13 61 l0 61 73 -5 72 -5 -73 10
c-72 11 -73 11 -67 37 4 14 8 28 10 30 2 1 34 -7 70 -19 36 -12 68 -20 70 -18
3 2 -27 14 -65 27 -72 23 -77 29 -60 61 9 17 15 16 91 -25 45 -23 86 -50 91
-59z m295 -102 c-3 -3 -12 -4 -19 -1 -8 3 -5 6 6 6 11 1 17 -2 13 -5z m143
-65 c72 -23 130 -44 130 -48 0 -4 -6 -16 -14 -27 -14 -18 -19 -17 -134 44 -65
34 -123 62 -128 62 -5 0 47 -30 116 -66 69 -37 126 -68 128 -69 6 -5 -23 -45
-32 -45 -5 0 -27 15 -50 33 -91 74 -178 139 -181 135 -2 -2 48 -43 111 -92 63
-49 114 -91 114 -95 0 -11 -23 -31 -35 -31 -7 0 -56 49 -110 110 -55 60 -101
107 -104 105 -2 -3 42 -54 99 -115 97 -105 102 -111 86 -129 -20 -22 -83 -57
-90 -50 -3 3 -30 66 -60 139 -51 124 -54 136 -41 157 10 15 21 20 32 16 12 -5
14 -3 8 7 -6 10 -4 12 8 7 10 -4 76 -25 147 -48z m-360 27 c0 -2 -52 -37 -116
-76 -110 -69 -118 -72 -130 -55 -8 10 -14 22 -14 26 0 4 53 30 118 57 108 47
142 58 142 48z m81 -23 c7 -7 4 -55 -11 -159 -11 -81 -22 -150 -25 -152 -2 -2
-16 -1 -30 2 -18 5 -25 12 -21 22 3 8 24 73 47 145 32 102 38 134 29 143 -10
8 -11 5 -5 -14 4 -18 3 -21 -3 -11 -8 11 -20 -5 -50 -65 -22 -43 -54 -103 -70
-132 l-29 -53 -23 19 -23 19 88 112 c48 61 86 113 84 116 -2 2 -44 -48 -93
-111 -85 -110 -89 -114 -107 -98 -11 9 -19 20 -19 24 0 14 223 208 236 206 8
-1 19 -7 25 -13z m37 -111 c1 47 5 94 8 103 7 18 127 -260 121 -279 -2 -6 -29
-16 -60 -22 l-57 -11 -2 46 -2 46 -3 -47 c-4 -43 -7 -48 -28 -48 -13 0 -26 4
-29 9 -3 5 4 80 16 168 l23 158 6 -105 5 -105 2 87z m-93 -49 c-20 -65 -40
-122 -45 -126 -9 -10 -50 0 -50 12 0 14 122 242 127 237 3 -3 -11 -58 -32
-123z"/>
<path d="M5744 5430 c0 -69 1 -97 3 -62 2 34 2 90 0 125 -2 34 -3 6 -3 -63z"/>
<path d="M5754 5180 c0 -69 1 -97 3 -62 2 34 2 90 0 125 -2 34 -3 6 -3 -63z"/>
<path d="M5885 5545 c-4 -37 -5 -69 -2 -71 2 -3 8 25 12 61 4 37 5 69 2 71 -2
3 -8 -25 -12 -61z"/>
<path d="M5872 5430 c0 -19 2 -27 5 -17 2 9 2 25 0 35 -3 9 -5 1 -5 -18z"/>
<path d="M5850 5290 c-7 -56 -10 -103 -8 -106 3 -2 11 41 18 96 7 56 10 103 8
106 -3 2 -11 -41 -18 -96z"/>
<path d="M5210 4765 c124 -19 239 -33 255 -33 17 0 -71 15 -195 33 -124 19
-238 33 -255 33 -16 0 71 -15 195 -33z"/>
<path d="M5548 4643 c6 -2 18 -2 25 0 6 3 1 5 -13 5 -14 0 -19 -2 -12 -5z"/>
<path d="M5470 4630 c-20 -6 -21 -8 -5 -8 11 0 31 4 45 8 20 6 21 8 5 8 -11 0
-31 -4 -45 -8z"/>
<path d="M5380 4610 c-20 -6 -21 -8 -5 -8 11 0 31 4 45 8 20 6 21 8 5 8 -11 0
-31 -4 -45 -8z"/>
<path d="M5318 4593 c6 -2 18 -2 25 0 6 3 1 5 -13 5 -14 0 -19 -2 -12 -5z"/>
<path d="M5240 4580 c-20 -6 -21 -8 -5 -8 11 0 31 4 45 8 20 6 21 8 5 8 -11 0
-31 -4 -45 -8z"/>
<path d="M5408 4547 c-54 -22 -96 -42 -94 -44 4 -4 196 74 205 82 11 11 -20 1
-111 -38z"/>
<path d="M5013 4532 c-90 -19 -161 -37 -159 -40 5 -4 348 67 355 74 10 9 -44
0 -196 -34z"/>
<path d="M4808 4483 c6 -2 18 -2 25 0 6 3 1 5 -13 5 -14 0 -19 -2 -12 -5z"/>
<path d="M6610 4879 c-98 -22 -123 -31 -65 -23 56 8 194 42 170 42 -11 0 -58
-9 -105 -19z"/>
<path d="M6578 4723 c34 -2 88 -2 120 0 31 2 3 3 -63 3 -66 0 -92 -1 -57 -3z"/>
<path d="M6318 4713 c34 -2 90 -2 125 0 34 2 6 3 -63 3 -69 0 -97 -1 -62 -3z"/>
<path d="M6058 4703 c34 -2 90 -2 125 0 34 2 6 3 -63 3 -69 0 -97 -1 -62 -3z"/>
<path d="M6050 4649 c25 -4 59 -7 75 -7 22 0 18 3 -15 9 -25 4 -58 7 -75 7
-22 0 -18 -3 15 -9z"/>
<path d="M6173 4633 c9 -2 25 -2 35 0 9 3 1 5 -18 5 -19 0 -27 -2 -17 -5z"/>
<path d="M6305 4615 c44 -8 94 -13 110 -13 17 0 -6 6 -50 13 -44 8 -93 13
-110 13 -16 0 6 -6 50 -13z"/>
<path d="M6525 4585 c44 -8 94 -13 110 -13 17 0 -6 6 -50 13 -44 8 -93 13
-110 13 -16 0 6 -6 50 -13z"/>
<path d="M6683 4563 c9 -2 25 -2 35 0 9 3 1 5 -18 5 -19 0 -27 -2 -17 -5z"/>
<path d="M5784 4405 c0 -66 1 -92 3 -57 2 34 2 88 0 120 -2 31 -3 3 -3 -63z"/>
<path d="M5812 4505 c0 -11 4 -31 8 -45 6 -20 8 -21 8 -5 0 11 -4 31 -8 45 -6
20 -8 21 -8 5z"/>
<path d="M5730 4410 c-7 -56 -10 -103 -8 -106 3 -2 11 41 18 96 7 56 10 103 8
106 -3 2 -11 -41 -18 -96z"/>
<path d="M5852 4490 c24 -64 61 -150 64 -147 5 4 -53 148 -63 156 -3 3 -4 -1
-1 -9z"/>
<path d="M5832 4415 c0 -11 6 -42 13 -70 7 -27 13 -41 13 -30 0 11 -6 43 -13
70 -7 28 -13 41 -13 30z"/>
<path d="M5920 4328 c0 -10 208 -516 220 -534 18 -29 10 -8 -104 270 -97 236
-116 280 -116 264z"/>
<path d="M5712 4260 c0 -19 2 -27 5 -17 2 9 2 25 0 35 -3 9 -5 1 -5 -18z"/>
<path d="M5866 4255 c3 -22 14 -74 24 -115 11 -41 17 -57 14 -35 -3 22 -14 74
-24 115 -11 41 -17 57 -14 35z"/>
<path d="M5793 4165 c0 -60 3 -175 7 -255 6 -144 6 -145 7 -35 0 61 -3 175 -7
255 -6 144 -6 145 -7 35z"/>
<path d="M5695 4155 c-4 -37 -5 -69 -2 -71 2 -3 8 25 12 61 4 37 5 69 2 71 -2
3 -8 -25 -12 -61z"/>
<path d="M5682 4040 c0 -19 2 -27 5 -17 2 9 2 25 0 35 -3 9 -5 1 -5 -18z"/>
<path d="M5912 4045 c0 -11 6 -42 13 -70 7 -27 13 -41 13 -30 0 11 -6 43 -13
70 -7 28 -13 41 -13 30z"/>
<path d="M5673 3965 c0 -22 2 -30 4 -17 2 12 2 30 0 40 -3 9 -5 -1 -4 -23z"/>
<path d="M5662 3890 c0 -19 2 -27 5 -17 2 9 2 25 0 35 -3 9 -5 1 -5 -18z"/>
<path d="M5942 3905 c0 -11 6 -42 13 -70 7 -27 13 -41 13 -30 0 11 -6 43 -13
70 -7 28 -13 41 -13 30z"/>
<path d="M5652 3820 c0 -19 2 -27 5 -17 2 9 2 25 0 35 -3 9 -5 1 -5 -18z"/>
<path d="M5643 3745 c0 -22 2 -30 4 -17 2 12 2 30 0 40 -3 9 -5 -1 -4 -23z"/>
<path d="M7437 4433 c-7 -13 -30 -203 -25 -208 2 -3 11 45 19 105 14 106 15
119 6 103z"/>
<path d="M7698 4123 c6 -2 18 -2 25 0 6 3 1 5 -13 5 -14 0 -19 -2 -12 -5z"/>
<path d="M7620 4110 c-20 -6 -21 -8 -5 -8 11 0 31 4 45 8 20 6 21 8 5 8 -11 0
-31 -4 -45 -8z"/>
<path d="M7588 4063 c34 -2 88 -2 120 0 31 2 3 3 -63 3 -66 0 -92 -1 -57 -3z"/>
<path d="M7058 4043 c34 -2 90 -2 125 0 34 2 6 3 -63 3 -69 0 -97 -1 -62 -3z"/>
<path d="M7446 3958 c36 -63 148 -237 151 -234 5 4 -147 246 -153 246 -3 0 -2
-6 2 -12z"/>
<path d="M7412 3935 c0 -11 6 -42 13 -70 7 -27 13 -41 13 -30 0 11 -6 43 -13
70 -7 28 -13 41 -13 30z"/>
<path d="M7442 3795 c0 -11 4 -31 8 -45 6 -20 8 -21 8 -5 0 11 -4 31 -8 45 -6
20 -8 21 -8 5z"/>
<path d="M7462 3700 c0 -14 2 -19 5 -12 2 6 2 18 0 25 -3 6 -5 1 -5 -13z"/>
<path d="M6443 3143 c-39 -20 -44 -38 -8 -29 l25 6 0 -90 c0 -53 4 -90 10 -90
6 0 10 43 10 110 0 61 -1 110 -2 109 -2 0 -18 -8 -35 -16z"/>
<path d="M6547 3142 c-19 -21 -22 -57 -7 -67 7 -4 5 -14 -5 -28 -20 -29 -19
-70 3 -90 23 -21 86 -22 106 -1 21 20 20 63 -1 86 -13 14 -14 21 -5 30 18 18
14 53 -6 71 -24 22 -65 21 -85 -1z m81 -28 c4 -31 -23 -50 -53 -36 -14 7 -25
18 -25 25 0 40 72 50 78 11z m-4 -77 c12 -9 17 -23 14 -42 -3 -28 -6 -30 -42
-30 -48 0 -65 21 -48 59 13 29 46 35 76 13z"/>
<path d="M6745 3150 l-60 -7 58 -1 c31 -1 57 -6 57 -10 0 -4 -16 -47 -36 -96
-20 -48 -33 -90 -30 -93 9 -10 12 -4 54 104 36 91 41 117 23 111 -3 -1 -33 -4
-66 -8z"/>
<path d="M6918 3152 l-48 -3 0 -44 c0 -38 2 -43 20 -38 60 16 107 -35 76 -82
-18 -27 -53 -33 -88 -14 -16 9 -19 8 -16 -2 3 -8 19 -18 36 -23 91 -26 141 95
54 131 -19 8 -41 12 -48 9 -10 -4 -14 3 -14 24 0 27 2 29 48 32 26 2 43 5 37
8 -5 3 -31 4 -57 2z"/>
<path d="M6120 3056 c0 -69 4 -97 14 -106 18 -14 58 -10 64 7 2 9 -5 11 -27 7
l-31 -6 0 66 c0 65 0 66 27 66 23 0 25 13 2 16 -5 1 -13 2 -19 3 -5 0 -10 10
-10 21 0 11 -4 20 -10 20 -6 0 -10 -38 -10 -94z"/>
<path d="M5842 3103 c-17 -7 -42 -57 -42 -86 0 -37 36 -77 70 -77 33 0 60 9
60 20 0 5 -19 6 -42 3 -33 -5 -44 -2 -55 12 -20 29 -16 35 23 35 48 0 74 16
74 45 0 42 -43 66 -88 48z m66 -40 c4 -25 -28 -43 -67 -40 -25 2 -27 15 -5 45
21 31 68 27 72 -5z"/>
<path d="M5998 3099 c-28 -16 -21 -47 15 -69 48 -28 57 -38 50 -56 -5 -13 -16
-15 -50 -11 -42 4 -58 -5 -27 -17 85 -33 131 47 52 89 -51 27 -51 55 0 55 27
0 33 3 22 10 -19 12 -40 12 -62 -1z"/>
<path d="M6240 2955 c0 -9 5 -15 11 -13 6 2 11 8 11 13 0 5 -5 11 -11 13 -6 2
-11 -4 -11 -13z"/>
</g>
</svg>
